<?xml version="1.0" encoding="UTF-8"?>
<svg xmlns="http://www.w3.org/2000/svg" xmlns:xlink="http://www.w3.org/1999/xlink" viewBox="0 0 480 480" width="480px" height="480px">
<g id="surface2507783">
<path style=" stroke:none;fill-rule:nonzero;fill:rgb(0%,0%,0%);fill-opacity:1;" d="M 270 70 L 210 70 C 193 70 180 83 180 100 L 180 130 L 200 130 L 200 100 C 200 94 204 90 210 90 L 270 90 C 276 90 280 94 280 100 L 280 130 L 300 130 L 300 100 C 300 83 287 70 270 70 Z M 270 70 "/>
<path style=" stroke:none;fill-rule:nonzero;fill:rgb(80.000001%,80.000001%,80.000001%);fill-opacity:1;" d="M 400 430 L 80 430 C 58 430 40 412 40 390 L 40 150 C 40 128 58 110 80 110 L 400 110 C 422 110 440 128 440 150 L 440 390 C 440 412 422 430 400 430 Z M 400 430 "/>
<path style=" stroke:none;fill-rule:nonzero;fill:rgb(0%,0%,0%);fill-opacity:1;" d="M 400 280 L 80 280 C 58 280 40 262 40 240 L 40 150 C 40 128 58 110 80 110 L 400 110 C 422 110 440 128 440 150 L 440 240 C 440 262 422 280 400 280 Z M 400 280 "/>
<path style=" stroke:none;fill-rule:nonzero;fill:rgb(20.392157%,59.607846%,85.882354%);fill-opacity:1;" d="M 260 260 L 220 260 C 214 260 210 256 210 250 L 210 230 C 210 224 214 220 220 220 L 260 220 C 266 220 270 224 270 230 L 270 250 C 270 256 266 260 260 260 Z M 260 260 "/>
</g>
</svg>
